<?xml version="1.0" encoding="utf-8"?>
<!-- Generator: Adobe Illustrator 16.0.0, SVG Export Plug-In . SVG Version: 6.00 Build 0)  -->
<!DOCTYPE svg PUBLIC "-//W3C//DTD SVG 1.1//EN" "http://www.w3.org/Graphics/SVG/1.1/DTD/svg11.dtd">
<svg version="1.1" id="Layer_1" xmlns="http://www.w3.org/2000/svg" xmlns:xlink="http://www.w3.org/1999/xlink" x="0px" y="0px"
	 width="120px" height="120px" viewBox="0 0 120 120" enable-background="new 0 0 120 120" xml:space="preserve">
<title>xels</title>
<desc>Created with Sketch.</desc>
<g id="Page-1">
	<g id="xels">
		<path id="Rectangle-3-Copy" fill="#EFF7ED" d="M60,0L60,0c33.137,0,60,26.863,60,60l0,0c0,33.137-26.863,60-60,60l0,0
			C26.863,120,0,93.137,0,60l0,0C0,26.863,26.863,0,60,0z"/>
		<path id="inbox" fill="#55B847" d="M71.242,59.535h16.854L77.212,42H42.883L32,59.535h16.854v5.016
			c0,2.764,2.229,5.005,4.969,5.005h12.451c2.744,0,4.969-2.251,4.969-5.005V59.535L71.242,59.535z M74.189,62H89.08v17.715H32V62
			h14.89v3.796c0,3.494,2.768,6.327,6.195,6.327h14.909c3.422,0,6.195-2.809,6.195-6.327V62L74.189,62L74.189,62z M29,60.159v-1.245
			L41.4,39h37.2L91,58.914v1.245v21.159H29V60.159z M55.375,60l4.125-4.125L63.625,60L65,58.625L60.875,54.5L65,50.375L63.625,49
			L59.5,53.125L55.375,49L54,50.375l4.125,4.125L54,58.625L55.375,60z"/>
		<g id="Group-2" transform="translate(47.000000, 56.000000)">
		</g>
	</g>
</g>
</svg>
