<svg xmlns="http://www.w3.org/2000/svg" viewBox="0 0 896 896"><defs><style>.cls-1{fill:#4cb134;}.cls-2{fill:none;opacity:0;}</style></defs><title>LogoBig</title><g id="Layer_2" data-name="Layer 2"><g id="Layer_1-2" data-name="Layer 1"><path class="cls-1" d="M440,324.67v-36a144,144,0,0,0,0,288v-36a108,108,0,0,1-106.48-90H404v-36H333.52a108,108,0,0,1,106.48-90"/><polygon class="cls-1" points="316 577.34 152.67 288 114 288.67 278.67 578 316 577.34"/><polygon class="cls-1" points="98.67 288 261.33 577.33 242 576.67 80 288.67 98.67 288"/><path class="cls-1" d="M656,540.67l-18,36h63a81,81,0,1,0,0-162,45,45,0,0,1,0-90v-36a81,81,0,0,0,0,162,45,45,0,1,1,0,90Z"/><path class="cls-1" d="M553.2,540.67a144,144,0,0,0-95.2-252v36a108,108,0,1,1,0,216v36l162.67-1.33L640,538.67Z"/><polygon class="cls-1" points="238.21 409.93 314 288.67 278 288.67 221.16 379.62 238.21 409.93"/><polygon class="cls-1" points="164.32 470.56 98 576.67 134 576.67 181.37 500.88 164.32 470.56"/><rect class="cls-2" width="896" height="896"/></g></g></svg>