<svg xmlns="http://www.w3.org/2000/svg" viewBox="0 0 224 224"><defs><style>.cls-1,.cls-2{fill:#fff;}.cls-2{opacity:0;}</style></defs><title>Asset 5</title><g id="Layer_2" data-name="Layer 2"><g id="Layer_1-2" data-name="Layer 1"><path class="cls-1" d="M110,81.17v-9a36,36,0,0,0,0,72v-9a27,27,0,0,1-26.62-22.5H101v-9H83.38A27,27,0,0,1,110,81.17"/><polygon class="cls-1" points="79 144.33 38.17 72 28.5 72.17 69.67 144.5 79 144.33"/><polygon class="cls-1" points="24.67 72 65.33 144.33 60.5 144.17 20 72.17 24.67 72"/><path class="cls-1" d="M164,135.17l-4.5,9h15.75a20.25,20.25,0,1,0,0-40.5,11.25,11.25,0,0,1,0-22.5v-9a20.25,20.25,0,0,0,0,40.5,11.25,11.25,0,1,1,0,22.5Z"/><path class="cls-1" d="M138.3,135.17a36,36,0,0,0-23.8-63v9a27,27,0,1,1,0,54v9l40.67-.34,4.83-9.16Z"/><polygon class="cls-1" points="59.55 102.48 78.5 72.17 69.5 72.17 55.29 94.9 59.55 102.48"/><polygon class="cls-1" points="41.08 117.64 24.5 144.17 33.5 144.17 45.34 125.22 41.08 117.64"/><rect class="cls-2" width="224" height="224"/></g></g></svg>